<svg enable-background="new 0 0 150 150" height="150" viewBox="0 0 150 150" width="150" xmlns="http://www.w3.org/2000/svg"><g fill="#fff"><path d="m102.875 79.505h-21.239v-2.646h20.881l.006-11.585h-54.709v11.585h21.102v2.646h-21.237c-1.336 0-2.509-1.173-2.509-2.511v-12.074c0-1.286 1.102-2.292 2.509-2.292h55.196c1.329 0 2.295.965 2.295 2.292v12.074c-.002 1.407-1.009 2.511-2.295 2.511z"/><path d="m99.21 111.417h-47.65c-1.337 0-2.509-1.172-2.509-2.51v-29.757c0-1.286 1.103-2.293 2.509-2.293h17.356v2.646h-17.22v29.266h47.157l.005-29.619c0 .138.162.301.3.301v-2.646c1.315 0 2.348 1.03 2.348 2.346v29.756c-.002 1.407-1.012 2.51-2.296 2.51z"/><path d="m82.959 111.417h-15.365v-48.79h15.365zm-12.721-2.646h10.075v-43.497h-10.075z"/><path d="m87.565 65.117h-10.672c-.859 0-2.128-.78-2.685-2.042-.507-1.154-.625-3.064 1.708-5.616 1.473-1.61 6.663-6.867 11.609-6.867 2.216 0 4.071 1.079 5.361 3.12.999 1.577 1.276 3.221.824 4.887-1.029 3.819-5.662 6.267-5.858 6.37zm-10.503-2.645h9.844c1.209-.699 3.704-2.501 4.258-4.567.25-.935.084-1.843-.509-2.779-.816-1.29-1.81-1.889-3.128-1.889-3.072 0-7.123 3.235-9.655 6.008-.97 1.057-1.438 2.014-1.289 2.625.081.329.345.527.479.602z"/><path d="m73.473 65.117h-10.674l-.286-.147c-.195-.103-4.832-2.55-5.861-6.37-.45-1.666-.173-3.31.825-4.887 1.292-2.041 3.146-3.12 5.362-3.12 4.943 0 10.134 5.256 11.607 6.867 2.333 2.552 2.217 4.463 1.709 5.616-.554 1.261-1.826 2.041-2.682 2.041zm-10.01-2.645h9.842c.134-.075.397-.273.478-.602.148-.611-.319-1.568-1.288-2.626-2.534-2.771-6.584-6.007-9.655-6.007-1.318 0-2.312.599-3.127 1.889-.593.936-.759 1.845-.51 2.779.555 2.066 3.05 3.868 4.26 4.567z"/></g></svg>