<?xml version="1.0" encoding="utf-8"?>
<!-- Generator: Adobe Illustrator 16.0.0, SVG Export Plug-In . SVG Version: 6.00 Build 0)  -->
<!DOCTYPE svg PUBLIC "-//W3C//DTD SVG 1.1//EN" "http://www.w3.org/Graphics/SVG/1.1/DTD/svg11.dtd">
<svg version="1.1" id="Capa_1" xmlns="http://www.w3.org/2000/svg" xmlns:xlink="http://www.w3.org/1999/xlink" x="0px" y="0px"
	 width="230px" height="230px" viewBox="0 0 230 230" enable-background="new 0 0 230 230" xml:space="preserve">
<g>
	<g>
		<path d="M142.816,96.041c-9.147,0-17.929,2.778-25.384,8.036l-0.439,0.308l-0.438-0.307c-5.261-3.707-11.12-6.167-17.412-7.316
			l-1.871-0.342l19.147-12.537c0.791-0.513,1.107-1.487,0.78-2.365l-5.221-14.267c-0.287-0.779-1.038-1.534-1.869-1.534H72.455
			c-0.83,0-1.582,0.756-1.874,1.534L65.358,81.4c-0.323,0.877-0.005,1.909,0.78,2.425l19.114,12.541l-1.881,0.353
			c-21.075,3.772-36.373,22.066-36.373,43.494c0,24.362,19.821,44.185,44.181,44.185c9.161,0,17.942-2.777,25.397-8.03l0.44-0.31
			l0.433,0.31c7.467,5.255,16.239,8.033,25.367,8.033c24.36,0,44.182-19.82,44.182-44.181
			C186.998,115.861,167.177,96.041,142.816,96.041z M108.72,70.266l2.784,7.485l-12.797-7.485H108.72z M107.961,80.891H74.632
			l16.708-9.724L107.961,80.891z M73.84,70.266h10.104l-12.895,7.502L73.84,70.266z M73.925,83.925h34.71L91.279,95.287
			L73.925,83.925z M112.926,174.01c-6.473,4.185-13.993,6.397-21.747,6.397c-22.158,0-40.187-18.028-40.187-40.188
			c0-22.158,18.029-40.186,40.187-40.186c22.156,0,40.186,18.027,40.186,40.186c0,7.217-1.939,14.299-5.606,20.476l-0.467,0.79
			l-0.688-0.605c-1.959-1.729-3.668-3.736-5.081-5.971l-0.228-0.361l0.188-0.384c2.124-4.306,3.246-9.127,3.246-13.944
			c0-17.396-14.154-31.552-31.55-31.552c-17.398,0-31.553,14.156-31.553,31.552c0,17.398,14.155,31.552,31.553,31.552
			c5.645,0,11.182-1.506,16.004-4.36l0.573-0.334l0.409,0.516c1.462,1.852,3.099,3.609,4.864,5.22l0.723,0.664L112.926,174.01z
			 M128.535,116.639l0.676-0.385c4.128-2.349,8.831-3.593,13.605-3.593c15.196,0,27.561,12.366,27.561,27.56
			c0,15.198-12.364,27.561-27.561,27.561c-4.755,0-9.453-1.245-13.588-3.6l-0.68-0.388l0.406-0.665
			c4.19-6.89,6.402-14.813,6.402-22.908c0-8.094-2.219-16.017-6.418-22.911L128.535,116.639z M118.74,140.22
			c0,2.471-0.343,4.955-1.015,7.384l-0.728,2.628l-0.735-2.628c-0.667-2.401-1.004-4.887-1.004-7.384
			c0-2.484,0.34-4.969,1.012-7.389l0.728-2.628l0.73,2.628C118.397,135.232,118.74,137.72,118.74,140.22z M105.447,116.646
			l-0.408,0.668c-4.188,6.886-6.399,14.807-6.399,22.907c0,8.098,2.216,16.022,6.417,22.914l0.409,0.667l-0.68,0.391
			c-4.129,2.349-8.831,3.59-13.605,3.59c-15.197,0-27.56-12.363-27.56-27.561c0-15.195,12.363-27.56,27.56-27.56
			c4.758,0,9.454,1.245,13.588,3.598L105.447,116.646z M142.816,180.407c-22.155,0-40.186-18.028-40.186-40.188
			c0-7.222,1.939-14.3,5.611-20.478l0.467-0.785l0.686,0.607c1.958,1.727,3.668,3.734,5.076,5.964l0.227,0.362l-0.185,0.381
			c-2.125,4.311-3.247,9.138-3.247,13.948c0,17.398,14.152,31.552,31.551,31.552s31.554-14.153,31.554-31.552
			c0-17.396-14.155-31.552-31.554-31.552c-5.644,0-11.182,1.509-16.012,4.359l-0.565,0.337l-0.41-0.519
			c-1.468-1.851-3.103-3.608-4.858-5.211l-0.724-0.667l0.826-0.533c6.469-4.188,13.99-6.4,21.744-6.4
			c22.161,0,40.187,18.027,40.187,40.186C183.003,162.379,164.978,180.407,142.816,180.407z"/>
		<g>
			<path d="M130.241,47.308c-0.375-0.376-0.879-0.585-1.412-0.585c-0.536,0-1.034,0.209-1.412,0.585l-8.907,8.909
				c-0.377,0.376-0.582,0.879-0.582,1.41c0,0.534,0.205,1.034,0.582,1.41c0.753,0.758,2.071,0.758,2.822,0l8.908-8.905
				C131.021,49.352,131.021,48.088,130.241,47.308z"/>
			<path d="M93.814,32.716c0-1.104-1.174-1.998-2.277-1.998c-1.098,0-2.275,0.894-2.275,1.998v12.593
				c0,1.101,1.178,1.996,2.275,1.996c1.103,0,2.277-0.895,2.277-1.996V32.716z"/>
			<path d="M64.05,56.216l-8.903-8.909c-0.378-0.376-0.878-0.585-1.416-0.585c-0.538,0-1.036,0.209-1.411,0.585
				c-0.781,0.781-0.781,2.044,0,2.823l8.903,8.905c0.757,0.758,2.071,0.758,2.826,0c0.377-0.375,0.588-0.875,0.588-1.41
				C64.638,57.096,64.427,56.594,64.05,56.216z"/>
		</g>
	</g>
</g>
</svg>
